<svg width="240" height="240" viewBox="0 0 240 240" fill="none" xmlns="http://www.w3.org/2000/svg">
<path d="M174.159 55L156.41 61.8576L54 164.267L75.7325 186L178.142 83.59L185 65.841L174.159 55ZM81.1782 164.267L75.7325 158.822L82.9935 151.561L88.4392 157.006L81.1782 164.267ZM106.491 138.955L101.045 133.509L108.306 126.248L113.752 131.694L106.491 138.955ZM119.197 126.248L113.752 120.803L121.013 113.542L126.458 118.987L119.197 126.248ZM131.854 113.592L126.408 108.146L133.669 100.885L139.115 106.331L131.854 113.592ZM144.56 100.885L139.115 95.4395L146.376 88.1786L151.821 93.6243L144.56 100.885Z" fill="white"/>
</svg>
