<svg width="240" height="240" viewBox="0 0 240 240" fill="none" xmlns="http://www.w3.org/2000/svg">
<path d="M64 77.8931V182.925C64 184.639 65.3614 186.001 67.0758 186.001H72.6728C74.3872 186.001 75.7486 184.639 75.7486 182.925V77.8931H64Z" fill="white"/>
<path d="M84.0184 77.8931V169.21C84.0184 170.924 85.3799 172.286 87.0942 172.286H92.6912C94.4056 172.286 95.7671 170.924 95.7671 169.21V77.8931H84.0184Z" fill="white"/>
<path d="M103.985 77.8931V155.545C103.985 157.259 105.347 158.621 107.061 158.621H112.658C114.373 158.621 115.734 157.259 115.734 155.545V77.8931H103.985Z" fill="white"/>
<path d="M124.004 77.8931V141.83C124.004 143.544 125.365 144.906 127.08 144.906H132.677C134.391 144.906 135.752 143.544 135.752 141.83V77.8931H124.004Z" fill="white"/>
<path d="M143.971 77.8931V128.165C143.971 129.88 145.333 131.241 147.047 131.241H152.644C154.359 131.241 155.72 129.88 155.72 128.165V77.8931H143.971Z" fill="white"/>
<path d="M163.99 77.8931V114.45C163.99 116.164 165.351 117.526 167.066 117.526H172.663C174.377 117.526 175.739 116.164 175.739 114.45V77.8931H163.99Z" fill="white"/>
<path d="M172.663 55H167.066C165.351 55 163.99 56.3614 163.99 58.0758V69.6732H175.739V58.0758C175.739 56.3614 174.327 55 172.663 55Z" fill="white"/>
<path d="M152.644 55H147.047C145.333 55 143.971 56.3614 143.971 58.0758V69.6732H155.72V58.0758C155.72 56.3614 154.359 55 152.644 55Z" fill="white"/>
<path d="M132.677 55H127.08C125.365 55 124.004 56.3614 124.004 58.0758V69.6732H135.752V58.0758C135.752 56.3614 134.341 55 132.677 55Z" fill="white"/>
<path d="M112.658 55H107.061C105.347 55 103.985 56.3614 103.985 58.0758V69.6732H115.734V58.0758C115.734 56.3614 114.373 55 112.658 55Z" fill="white"/>
<path d="M92.6405 55H87.0435C85.3291 55 83.9677 56.3614 83.9677 58.0758V69.6732H95.7163V58.0758C95.7163 56.3614 94.3549 55 92.6405 55Z" fill="white"/>
<path d="M72.6728 55H67.0758C65.3614 55 64 56.3614 64 58.0758V69.6732H75.7486V58.0758C75.7486 56.3614 74.3368 55 72.6728 55Z" fill="white"/>
</svg>
