<svg width="240" height="240" viewBox="0 0 240 240" fill="none" xmlns="http://www.w3.org/2000/svg">
<path fill-rule="evenodd" clip-rule="evenodd" d="M79.78 146.797C81.5885 146.797 83.0552 148.267 83.0552 150.072C83.0552 151.878 81.5885 153.347 79.78 153.347C77.9714 153.347 76.5049 151.878 76.5049 150.072C76.5049 148.267 77.9714 146.797 79.78 146.797ZM81.7241 141.951C81.7241 143.759 83.1907 145.226 84.9992 145.226C86.8078 145.226 88.2744 143.756 88.2744 141.951C88.2744 140.145 86.8047 138.676 84.9992 138.676C83.1938 138.676 81.7241 140.142 81.7241 141.951ZM74.04 136.097C74.04 137.905 75.5066 139.372 77.3152 139.372C79.1237 139.372 80.5903 137.905 80.5903 136.097C80.5903 134.285 79.1207 132.822 77.3152 132.822C75.5097 132.822 74.04 134.288 74.04 136.097ZM79.2562 127.975C79.2562 129.784 80.7228 131.25 82.5313 131.25C84.3399 131.25 85.8065 129.784 85.8065 127.975C85.8065 126.163 84.3368 124.7 82.5313 124.7C80.7259 124.7 79.2562 126.163 79.2562 127.975ZM71.5752 122.121C71.5752 123.93 73.0448 125.396 74.8503 125.396C76.6558 125.396 78.1255 123.927 78.1255 122.121C78.1255 120.316 76.6589 118.846 74.8503 118.846C73.0417 118.846 71.5752 120.313 71.5752 122.121ZM76.7914 113.996C76.7914 115.805 78.2611 117.272 80.0666 117.272C81.872 117.272 83.3417 115.805 83.3417 113.996C83.3417 112.185 81.8751 110.721 80.0666 110.721C78.258 110.721 76.7914 112.185 76.7914 113.996ZM69.1104 108.146C69.1104 109.954 70.5769 111.421 72.3855 111.421C74.1941 111.421 75.6606 109.954 75.6606 108.146C75.6606 106.334 74.191 104.87 72.3855 104.87C70.58 104.87 69.1104 106.334 69.1104 108.146ZM74.3266 100.021C74.3266 101.829 75.7931 103.296 77.6017 103.296C79.4102 103.296 80.8769 101.826 80.8769 100.021C80.8769 98.2154 79.4072 96.7457 77.6017 96.7457C75.7962 96.7457 74.3266 98.2123 74.3266 100.021ZM66.6424 94.1669C66.6424 95.9785 68.1121 97.442 69.9176 97.442C71.7231 97.442 73.1927 95.9755 73.1927 94.1669C73.1927 92.3583 71.7262 90.8918 69.9176 90.8918C68.109 90.8918 66.6424 92.3583 66.6424 94.1669ZM166.807 125.92L167.944 119.465L155.041 117.195L156.177 110.74L169.081 113.014L170.218 106.559L157.32 104.291L158.457 97.8364L171.355 100.113L172.498 93.6585L159.594 91.3847L160.725 84.9361L177.93 87.9679L165.411 158.927L148.213 155.896L149.35 149.444L162.253 151.718L163.39 145.266L150.487 142.989L151.624 136.543L164.527 138.814L165.664 132.363L152.761 130.089L153.897 123.637L166.807 125.92ZM136.899 157.227C136.585 159.004 137.777 160.708 139.558 161.019L167.509 165.949C169.284 166.266 170.988 165.068 171.299 163.293L184.948 85.8851C185.269 84.1104 184.07 82.4066 182.295 82.0923L154.344 77.1626C152.563 76.8484 150.86 78.0408 150.548 79.8154L136.899 157.227ZM102.099 157.227C102.413 159.001 101.221 160.708 99.4462 161.022L71.4951 165.949C69.7142 166.266 68.0104 165.071 67.6992 163.296L54.0503 85.8881C53.736 84.1104 54.9283 82.4035 56.703 82.0954L84.6542 77.1626C86.4288 76.8484 88.1388 78.0438 88.45 79.8185L102.099 157.227ZM81.1048 157.602C88.8012 156.247 93.9774 148.861 92.6156 141.165L85.0332 98.1599C83.6744 90.4604 76.2892 85.2904 68.5928 86.6461L61.0657 87.9771L73.584 158.933L81.1048 157.602ZM92.8312 79.5043L106.48 156.915C106.795 158.693 108.495 159.889 110.276 159.574C111.077 159.429 111.767 158.995 112.251 158.407C112.858 157.649 113.678 157.233 114.651 157.186C115.619 157.143 116.475 157.485 117.15 158.182C117.745 158.795 118.583 159.18 119.504 159.18C120.425 159.18 121.26 158.795 121.858 158.182C122.532 157.482 123.386 157.143 124.356 157.186C125.33 157.233 126.15 157.646 126.757 158.407C127.237 158.995 127.93 159.429 128.732 159.574C130.512 159.889 132.216 158.693 132.527 156.915L146.176 79.5043C146.497 77.7327 145.298 76.0257 143.524 75.7146C142.186 75.4804 140.889 76.0997 140.196 77.1781C139.509 78.2472 138.354 78.7987 137.097 78.6662C135.839 78.5337 134.829 77.7511 134.376 76.5649C133.942 75.428 132.891 74.5715 131.597 74.4575C130.247 74.3374 129.003 75.0645 128.408 76.2014C127.813 77.3414 126.68 77.9976 125.392 77.9514C124.104 77.9052 123.025 77.1719 122.508 75.9888C122.003 74.8365 120.847 74.0231 119.504 74.0231C118.16 74.0231 117.005 74.8365 116.5 75.9888C115.982 77.1719 114.904 77.9052 113.616 77.9514C112.328 77.9976 111.197 77.3414 110.6 76.2014C110.005 75.0645 108.757 74.3374 107.411 74.4575C106.117 74.5684 105.063 75.4249 104.632 76.5649C104.182 77.7511 103.168 78.5337 101.911 78.6662C100.654 78.7987 99.4986 78.2441 98.8116 77.1781C98.1183 76.0997 96.8212 75.4804 95.4841 75.7145C93.7125 76.0257 92.5139 77.7327 92.8312 79.5043Z" fill="white"/>
</svg>
