<svg width="240" height="240" viewBox="0 0 240 240" fill="none" xmlns="http://www.w3.org/2000/svg">
<path d="M183.666 83.2684L178.229 77.8311L179.337 76.7236C182.307 73.7533 182.307 68.8699 179.337 65.8996L173.899 60.4623C170.929 57.492 166.046 57.492 163.075 60.4623L161.968 61.57L156.531 56.1327C155.02 54.6224 152.604 54.6224 151.093 56.1327C149.583 57.6431 149.583 60.0596 151.093 61.57L156.531 67.0071L152.251 71.2864L151.698 72.9478L145.707 66.9568C144.196 65.4464 141.78 65.4464 140.269 66.9568C138.759 68.4671 138.759 70.8837 140.269 72.394L148.375 80.4994L110.214 118.66C112.63 119.617 114.846 121.027 116.759 122.94C118.672 124.853 120.081 127.118 121.038 129.484L159.199 91.3234L167.304 99.4289C168.815 100.939 171.231 100.939 172.742 99.4289C174.252 97.9185 174.252 95.502 172.742 93.9917L166.751 88.0007L168.412 87.447L172.691 83.1677L178.128 88.6048C179.639 90.1152 182.055 90.1152 183.566 88.6048C185.126 87.1952 185.126 84.7787 183.666 83.2684Z" fill="white"/>
<path d="M147.368 114.179L122.195 139.351C121.642 143.278 119.88 147.104 116.859 150.125C109.408 157.576 97.2247 157.576 89.7737 150.125C82.3228 142.674 82.3228 130.491 89.7737 123.04C92.7944 120.019 96.5702 118.257 100.547 117.703L125.72 92.5312C114.442 87.4967 102.561 88.6043 95.2109 95.9545C92.4419 98.7235 90.5289 102.197 89.522 106.275C89.1192 107.936 87.6592 109.195 85.4441 109.044C76.5835 108.943 68.4277 111.914 62.6885 117.653C49.2465 131.095 51.6631 155.411 68.1257 171.874C84.5883 188.336 108.905 190.753 122.346 177.311C128.086 171.572 131.106 163.517 130.955 154.555C130.905 152.542 132.063 150.88 133.724 150.477C137.802 149.521 141.276 147.608 144.045 144.789C151.294 137.338 152.352 125.456 147.368 114.179ZM89.7737 166.336C88.2634 167.846 85.8468 167.846 84.3365 166.336L73.5125 155.512C72.0022 154.002 72.0022 151.585 73.5125 150.075C75.0228 148.564 77.4394 148.564 78.9497 150.075L89.7737 160.899C91.2337 162.409 91.2337 164.826 89.7737 166.336Z" fill="white"/>
<path d="M111.422 128.429C106.942 123.948 99.6417 123.948 95.161 128.429C90.6804 132.91 90.6804 140.21 95.161 144.69C99.6417 149.171 106.942 149.171 111.422 144.69C115.903 140.21 115.903 132.91 111.422 128.429Z" fill="white"/>
</svg>
