<svg width="200" height="21" viewBox="0 0 200 21" fill="none" xmlns="http://www.w3.org/2000/svg">
<path d="M15.6707 7.16667C15.6707 7.85724 15.6087 8.48583 15.4847 9.05246C15.3696 9.61023 15.1837 10.1237 14.927 10.593C14.6702 11.0622 14.3382 11.496 13.9309 11.8944C13.5237 12.2928 13.0323 12.6735 12.4568 13.0365L15.6175 18.6673L9.64143 19.836L7.59628 14.1786L5.94954 14.2317L5.71049 19.7563H0C0.0442674 17.7377 0.084108 15.728 0.119522 13.7271C0.163789 11.7262 0.212483 9.71647 0.265604 7.69788C0.283311 6.67973 0.301018 5.67043 0.318725 4.66999C0.336432 3.66954 0.371846 2.66025 0.424967 1.6421C1.04471 1.41191 1.6556 1.22156 2.25764 1.07105C2.85967 0.92054 3.46171 0.805445 4.06375 0.725764C4.67463 0.637229 5.28995 0.579681 5.90969 0.553121C6.53829 0.517707 7.18017 0.5 7.83533 0.5C8.84462 0.5 9.8185 0.641656 10.757 0.924967C11.7043 1.19942 12.5409 1.61554 13.2669 2.17331C13.9929 2.73108 14.5728 3.42607 15.0066 4.2583C15.4493 5.09053 15.6707 6.05998 15.6707 7.16667ZM9.72112 7.59163C9.72112 7.21979 9.668 6.87893 9.56175 6.56906C9.46437 6.25919 9.31386 5.99358 9.11023 5.77224C8.91545 5.54205 8.66755 5.36498 8.36653 5.24104C8.07437 5.10823 7.72908 5.04183 7.33068 5.04183C7.15361 5.04183 6.98097 5.05511 6.81275 5.08167C6.64453 5.09938 6.48074 5.13037 6.32138 5.17463L6.1089 10.1149H6.42762C6.80832 10.1149 7.19345 10.0662 7.583 9.96879C7.98141 9.8714 8.33555 9.72089 8.64542 9.51726C8.96414 9.31363 9.22089 9.05246 9.41567 8.73373C9.6193 8.41501 9.72112 8.03431 9.72112 7.59163Z" fill="#EEEBE9"/>
<path d="M34.1886 10.593C34.1886 11.3986 34.0956 12.1777 33.9097 12.9303C33.7238 13.674 33.4537 14.3734 33.0996 15.0286C32.7543 15.6837 32.3293 16.2857 31.8247 16.8347C31.3289 17.3747 30.7667 17.8395 30.1381 18.2291C29.5184 18.6186 28.8411 18.9241 28.1062 19.1454C27.3714 19.3579 26.5923 19.4641 25.7689 19.4641C24.9721 19.4641 24.2107 19.3623 23.4847 19.1587C22.7676 18.9551 22.0947 18.6718 21.4661 18.3088C20.8375 17.9369 20.2665 17.4942 19.753 16.9807C19.2483 16.4584 18.8145 15.8829 18.4515 15.2543C18.0974 14.6169 17.8185 13.9351 17.6149 13.2092C17.4201 12.4832 17.3227 11.7262 17.3227 10.9382C17.3227 10.168 17.4157 9.41545 17.6016 8.68061C17.7875 7.93692 18.0531 7.23749 18.3984 6.58234C18.7525 5.92718 19.1775 5.32514 19.6733 4.77623C20.1691 4.22731 20.7224 3.75365 21.3333 3.35525C21.9531 2.95684 22.6215 2.64697 23.3386 2.42563C24.0558 2.20429 24.8127 2.09363 25.6096 2.09363C26.8933 2.09363 28.062 2.29283 29.1155 2.69124C30.178 3.08964 31.081 3.66069 31.8247 4.40438C32.5772 5.13922 33.1572 6.03342 33.5644 7.08699C33.9805 8.1317 34.1886 9.30035 34.1886 10.593ZM28.2922 10.9382C28.2922 10.5575 28.2346 10.1901 28.1195 9.83599C28.0133 9.473 27.8539 9.15427 27.6414 8.87981C27.429 8.5965 27.1633 8.37074 26.8446 8.20252C26.5347 8.02545 26.1762 7.93692 25.7689 7.93692C25.3528 7.93692 24.981 8.01217 24.6534 8.16268C24.3258 8.31319 24.0425 8.52125 23.8035 8.78685C23.5733 9.0436 23.3962 9.34905 23.2722 9.70319C23.1483 10.0485 23.0863 10.4159 23.0863 10.8054C23.0863 11.1773 23.1394 11.5491 23.2457 11.921C23.3519 12.2928 23.5113 12.6293 23.7238 12.9303C23.9363 13.2313 24.1974 13.4748 24.5073 13.6607C24.826 13.8466 25.1934 13.9396 25.6096 13.9396C26.0257 13.9396 26.3975 13.8599 26.7251 13.7005C27.0615 13.5323 27.3448 13.311 27.575 13.0365C27.8052 12.7532 27.9823 12.4301 28.1062 12.0671C28.2302 11.7041 28.2922 11.3278 28.2922 10.9382Z" fill="#EEEBE9"/>
<path d="M52.1886 1.98738L44.8845 12.1866L44.5392 20.5H38.2444L38.4037 12.2397L34.6056 2.38579L41.3785 1.53586L42.4409 7.27291L45.8141 1.53586L52.1886 1.98738Z" fill="#EEEBE9"/>
<path d="M67.838 18.8267L61.251 19.6766L60.4542 16.6753H57.4263L56.7623 19.6766L49.9894 19.0126L55.2749 1.32337L62.6587 0.951527L67.838 18.8267ZM59.9761 12.6116L58.9668 7.99004L57.9841 12.6116H59.9761Z" fill="#EEEBE9"/>
<path d="M81.1501 12.3991L80.5923 18.2955L69.4104 19.172C69.4635 16.0821 69.521 13.01 69.583 9.95551C69.6538 6.90106 69.7379 3.82891 69.8353 0.739044H76.741C76.5374 2.67795 76.3426 4.61687 76.1567 6.55578C75.9708 8.48583 75.838 10.4336 75.7583 12.3991C76.1744 12.4168 76.5861 12.4256 76.9934 12.4256C77.4006 12.4256 77.8123 12.4256 78.2284 12.4256C78.7242 12.4256 79.2112 12.4212 79.6892 12.4124C80.1673 12.4035 80.6543 12.3991 81.1501 12.3991Z" fill="#EEEBE9"/>
<path d="M95.7105 0.818725C95.6574 1.65095 95.6087 2.47432 95.5644 3.28884C95.5201 4.10336 95.4626 4.92674 95.3918 5.75896L89.761 6.05113L89.6282 7.72444H93.5857L93.2935 11.8413L89.3094 11.9741L89.1766 13.913H94.8074C94.7543 14.8869 94.6968 15.8564 94.6348 16.8214C94.5817 17.7776 94.533 18.7382 94.4887 19.7032L83.0412 19.9688L83.4661 0.818725H95.7105Z" fill="#EEEBE9"/>
<path d="M109.541 15.12C109.101 15.12 108.709 15.028 108.365 14.844C108.021 14.652 107.749 14.392 107.549 14.064C107.357 13.736 107.261 13.364 107.261 12.948V11.292C107.261 10.876 107.361 10.504 107.561 10.176C107.761 9.848 108.033 9.592 108.377 9.408C108.721 9.216 109.109 9.12 109.541 9.12C110.061 9.12 110.529 9.256 110.945 9.528C111.369 9.792 111.701 10.152 111.941 10.608C112.189 11.056 112.313 11.564 112.313 12.132C112.313 12.692 112.189 13.2 111.941 13.656C111.701 14.104 111.369 14.46 110.945 14.724C110.529 14.988 110.061 15.12 109.541 15.12ZM109.325 13.872C109.645 13.872 109.925 13.8 110.165 13.656C110.413 13.504 110.605 13.296 110.741 13.032C110.885 12.768 110.957 12.464 110.957 12.12C110.957 11.776 110.885 11.472 110.741 11.208C110.605 10.944 110.413 10.74 110.165 10.596C109.925 10.444 109.645 10.368 109.325 10.368C109.005 10.368 108.721 10.444 108.473 10.596C108.225 10.74 108.033 10.944 107.897 11.208C107.761 11.472 107.693 11.776 107.693 12.12C107.693 12.464 107.761 12.768 107.897 13.032C108.033 13.296 108.225 13.504 108.473 13.656C108.721 13.8 109.005 13.872 109.325 13.872ZM106.457 15V6.36H107.777V10.656L107.549 12.048L107.777 13.452V15H106.457ZM115.078 15.06L112.618 9.24H114.07L115.75 13.512H115.33L117.106 9.24H118.57L115.894 15.06H115.078ZM113.362 17.4L115.15 13.716L115.894 15.06L114.826 17.4H113.362Z" fill="#EEEBE9"/>
<path d="M155.302 15.657C154.55 15.657 153.851 15.5285 153.204 15.2716C152.566 15.0051 152.005 14.634 151.519 14.1582C151.044 13.6823 150.672 13.1304 150.406 12.5023C150.14 11.8647 150.006 11.1795 150.006 10.4467C150.006 9.71392 150.14 9.03349 150.406 8.4054C150.672 7.76779 151.044 7.21583 151.519 6.74951C151.995 6.2832 152.552 5.92157 153.19 5.66462C153.837 5.39816 154.536 5.26493 155.288 5.26493C156.087 5.26493 156.796 5.3934 157.415 5.65035C158.043 5.9073 158.59 6.25941 159.057 6.70669L157.558 8.21982C157.291 7.93433 156.968 7.71069 156.587 7.5489C156.216 7.38712 155.783 7.30623 155.288 7.30623C154.85 7.30623 154.446 7.38237 154.075 7.53463C153.713 7.67738 153.399 7.88674 153.132 8.16272C152.876 8.4387 152.671 8.77178 152.519 9.16196C152.376 9.55214 152.305 9.98039 152.305 10.4467C152.305 10.9225 152.376 11.3555 152.519 11.7457C152.671 12.1359 152.876 12.469 153.132 12.745C153.399 13.0209 153.713 13.2351 154.075 13.3873C154.446 13.5396 154.85 13.6157 155.288 13.6157C155.802 13.6157 156.249 13.5348 156.63 13.373C157.011 13.2113 157.339 12.9876 157.615 12.7021L159.128 14.2153C158.643 14.6625 158.086 15.0147 157.458 15.2716C156.839 15.5285 156.121 15.657 155.302 15.657ZM161.843 15.5285L158.988 8.56242H161.344L163.157 14.0868H162.286L164.142 8.56242H166.497L163.528 15.5285H161.843ZM160.059 18.4263L162.143 13.9298L163.528 15.5285L162.3 18.4263H160.059ZM167.16 15.5V8.56242H169.344V15.5H167.16ZM171.6 15.5V11.4459C171.6 11.0938 171.49 10.8226 171.271 10.6323C171.062 10.4324 170.8 10.3325 170.486 10.3325C170.267 10.3325 170.072 10.3801 169.901 10.4753C169.73 10.5609 169.592 10.6846 169.487 10.8464C169.392 11.0082 169.344 11.208 169.344 11.4459L168.502 11.0748C168.502 10.5228 168.621 10.0518 168.859 9.66158C169.097 9.26189 169.42 8.95736 169.83 8.74799C170.239 8.52911 170.7 8.41967 171.214 8.41967C171.7 8.41967 172.133 8.52911 172.513 8.74799C172.903 8.96687 173.213 9.2714 173.441 9.66158C173.67 10.0518 173.784 10.5181 173.784 11.0605V15.5H171.6ZM176.039 15.5V11.4459C176.039 11.0938 175.93 10.8226 175.711 10.6323C175.501 10.4324 175.24 10.3325 174.926 10.3325C174.707 10.3325 174.512 10.3801 174.34 10.4753C174.169 10.5609 174.031 10.6846 173.927 10.8464C173.831 11.0082 173.784 11.208 173.784 11.4459L172.528 11.2746C172.547 10.6846 172.685 10.1802 172.942 9.76151C173.208 9.33326 173.555 9.00494 173.984 8.77654C174.421 8.53863 174.911 8.41967 175.454 8.41967C175.987 8.41967 176.458 8.53387 176.867 8.76227C177.286 8.98115 177.614 9.29995 177.852 9.71868C178.1 10.1279 178.223 10.6228 178.223 11.2033V15.5H176.039ZM183.62 15.6427C183.153 15.6427 182.725 15.5476 182.335 15.3573C181.945 15.1574 181.626 14.8957 181.379 14.5721C181.131 14.2391 180.988 13.8679 180.95 13.4587V10.5323C180.988 10.1231 181.131 9.76151 181.379 9.44746C181.626 9.1239 181.945 8.87171 182.335 8.69089C182.725 8.51008 183.153 8.41967 183.62 8.41967C184.276 8.41967 184.857 8.57669 185.361 8.89074C185.875 9.20479 186.275 9.63303 186.56 10.1755C186.855 10.7179 187.003 11.3365 187.003 12.0312C187.003 12.7259 186.855 13.3445 186.56 13.8869C186.275 14.4294 185.875 14.8576 185.361 15.1717C184.857 15.4857 184.276 15.6427 183.62 15.6427ZM183.234 13.6728C183.539 13.6728 183.805 13.6014 184.034 13.4587C184.272 13.3159 184.457 13.1209 184.59 12.8734C184.724 12.626 184.79 12.3453 184.79 12.0312C184.79 11.7076 184.724 11.4221 184.59 11.1747C184.457 10.9273 184.272 10.737 184.034 10.6037C183.805 10.461 183.539 10.3896 183.234 10.3896C182.93 10.3896 182.659 10.461 182.421 10.6037C182.183 10.737 181.997 10.9273 181.864 11.1747C181.74 11.4221 181.678 11.7076 181.678 12.0312C181.678 12.3548 181.745 12.6403 181.878 12.8877C182.011 13.1351 182.192 13.3302 182.421 13.473C182.659 13.6062 182.93 13.6728 183.234 13.6728ZM179.623 15.5V5.13645H181.807V10.2611L181.45 11.9456L181.778 13.63V15.5H179.623ZM191.01 15.6427C190.373 15.6427 189.802 15.4857 189.297 15.1717C188.802 14.8576 188.407 14.4294 188.112 13.8869C187.827 13.3445 187.684 12.7259 187.684 12.0312C187.684 11.3365 187.827 10.7179 188.112 10.1755C188.407 9.63303 188.802 9.20479 189.297 8.89074C189.802 8.57669 190.373 8.41967 191.01 8.41967C191.477 8.41967 191.895 8.51008 192.266 8.69089C192.647 8.87171 192.956 9.1239 193.194 9.44746C193.432 9.76151 193.565 10.1231 193.594 10.5323V13.5301C193.565 13.9393 193.432 14.3057 193.194 14.6292C192.966 14.9433 192.661 15.1907 192.281 15.3715C191.9 15.5523 191.477 15.6427 191.01 15.6427ZM191.453 13.6728C191.919 13.6728 192.295 13.5206 192.581 13.216C192.866 12.902 193.009 12.507 193.009 12.0312C193.009 11.7076 192.942 11.4221 192.809 11.1747C192.685 10.9273 192.504 10.737 192.266 10.6037C192.038 10.461 191.772 10.3896 191.467 10.3896C191.163 10.3896 190.891 10.461 190.653 10.6037C190.425 10.737 190.239 10.9273 190.097 11.1747C189.963 11.4221 189.897 11.7076 189.897 12.0312C189.897 12.3453 189.963 12.626 190.097 12.8734C190.23 13.1209 190.415 13.3159 190.653 13.4587C190.891 13.6014 191.158 13.6728 191.453 13.6728ZM192.923 15.5V13.63L193.251 11.9456L192.923 10.2611V8.56242H195.064V15.5H192.923ZM196.602 15.5V5.13645H198.786V15.5H196.602Z" fill="#EEEBE9"/>
<ellipse rx="7.51853" ry="4.44815" transform="matrix(0.987246 -0.155058 0.194764 0.980018 138.031 12.9435)" fill="#F1BB00"/>
<ellipse rx="7.51853" ry="4.44815" transform="matrix(0.987246 -0.155058 0.194764 0.980018 137.289 8.74815)" fill="#FFE488"/>
</svg>
